# xmcd
#
# Track frame offsets: 
#        150
#        14260
#        24259
#        37543
#        49364
#        60978
#        71654
#        82233
#        93243
#        105399
#        117142
#        131626
#        141852
#        151481
#        162166
#        171309
#        184565
#        194780
#        206458
#        221095
#
# Disc length: 3071 seconds
#
# Revision: 0
# Processed by: cddbd v1.5.2PL0 Copyright (c) Steve Scherf et al.
# Submitted via: ExactAudioCopy v1.0b6
#
DISCID=120bfd14
DTITLE=Various Artist - Best of Blues
DYEAR=2016
DGENRE=Blues
TTITLE0=Muddy Waters - Rollin' Stone
TTITLE1=Hawkins - Susie Q
TTITLE2=Howlin' Wolf - Moanin at Midnight
TTITLE3=Rufus Thomas - No more Doggin' Around
TTITLE4=John Lee Hooker - Walkin' the Boogie
TTITLE5=Washboard Sam - Bright Eyes
TTITLE6=Chuck Berry - Maybeline
TTITLE7=Billy Stewart - Billy's Blues
TTITLE8=Little Walter - My Babe
TTITLE9=Larry Williams - My Baby's got Soul
TTITLE10=Otis Rush - So many Roads so many Trains
TTITLE11=Elmore James - I can't hold out
TTITLE12=Buddy Guy - Slop around
TTITLE13=Mitty Collier - I've got Love
TTITLE14=Howlin' Wolf - Smokestack Lightning
TTITLE15=The Flamingos - I'll be Home
TTITLE16=The Majestics - Oasis Part 1
TTITLE17=Jimmy McCracklin - Later on
TTITLE18=John Lee Hooker - Sugar Mama
TTITLE19=Jackie Cannon - Proof of your Love
EXTD=
EXTT0=
EXTT1=
EXTT2=
EXTT3=
EXTT4=
EXTT5=
EXTT6=
EXTT7=
EXTT8=
EXTT9=
EXTT10=
EXTT11=
EXTT12=
EXTT13=
EXTT14=
EXTT15=
EXTT16=
EXTT17=
EXTT18=
EXTT19=
PLAYORDER=
